# xmcd
#
# Track frame offsets:
#	150
#	13055
#	27815
#	41247
#	53945
#	67760
#	81670
#	95547
#	108827
#	122405
#	133980
#	145210
#	159780
#	173865
#	186702
#	200152
#
# Disc length: 2877 seconds
#
# Revision: 3
# Processed by: cddbd v1.5.1PL2 Copyright (c) Steve Scherf et al.
# Submitted via: audiograbber 1.83.01
#
DISCID=e60b3b10
DTITLE=Peter Alexander - Ich lieb dich so, wie du bist
DYEAR=1990
DGENRE=Schlager
TTITLE0=Nicolo, Nicolo, Nicolino
TTITLE1=Bella, Bella Donna
TTITLE2=La Bella Musica
TTITLE3=Die süßesten Früchte
TTITLE4=Das machen nur die Beine von Dolores
TTITLE5=Isabella (Andalusische Märchen)
TTITLE6=Ich lieb dich so, wie du bist
TTITLE7=Ein Musikus, ein Musikus
TTITLE8=Jede Frau in Bogotá
TTITLE9=So ein kleines bißchen Liebe
TTITLE10=Die Panne mit der Susanne
TTITLE11=Es war in Napoli vor vielen, vielen Jahren
TTITLE12=Die schönen Frauen haben immer recht
TTITLE13=Wo am Weg die Äpfel reifen
TTITLE14=Ich küsse ihre Hand, Madame
TTITLE15=Alte Lieder, traute Weisen
EXTD=
EXTT0=
EXTT1=
EXTT2=
EXTT3=
EXTT4=
EXTT5=
EXTT6=
EXTT7=
EXTT8=
EXTT9=
EXTT10=
EXTT11=
EXTT12=
EXTT13=
EXTT14=
EXTT15=
PLAYORDER=
